<svg width="80" height="80" viewBox="0 0 80 80" fill="none" xmlns="http://www.w3.org/2000/svg">
<g filter="url(#filter0_b_3645_58860)">
<circle cx="40" cy="40" r="40" fill="#C4C4C4" fill-opacity="0.01"/>
<circle cx="40" cy="40" r="39.5" stroke="white"/>
</g>
<path d="M35.3672 44.9155V34.5L42.4798 41.9007V35.1416H43.997V45.5L36.8844 38.0993V44.9111H35.3672V44.9155Z" fill="white"/>
<path d="M54.9527 39.8322H59V40.1399C59 41.0891 58.8895 42.179 58.1154 43.2689C57.5934 43.9941 56.4832 45.1103 54.4175 45.1103C52.8428 45.1103 51.7193 44.5258 50.8744 43.6864C49.7907 42.6097 49.3838 41.3396 49.3838 40.0432C49.3838 38.7467 49.8173 37.4459 50.7904 36.4395C51.9581 35.2266 53.4046 34.9453 54.5015 34.9453C55.9789 34.9453 56.9609 35.5034 57.4961 35.8814C57.934 36.189 58.2835 36.523 58.5798 36.9405L57.5094 37.9469C57.1998 37.4986 56.2886 36.3428 54.5015 36.3428C52.4226 36.3428 50.9585 37.9205 50.9585 40.0432C50.9585 42.2054 52.5464 43.7172 54.4573 43.7172C56.0187 43.7172 57.1555 42.6581 57.3944 41.2298H54.9483V39.8322H54.9527Z" fill="white"/>
<path d="M29.4883 36.6788V35.2812H21V36.6788H24.4856V45.1079H29.4883V43.7147H26.0027V36.6788H29.4883Z" fill="white"/>
<defs>
<filter id="filter0_b_3645_58860" x="-20" y="-20" width="120" height="120" filterUnits="userSpaceOnUse" color-interpolation-filters="sRGB">
<feFlood flood-opacity="0" result="BackgroundImageFix"/>
<feGaussianBlur in="BackgroundImageFix" stdDeviation="10"/>
<feComposite in2="SourceAlpha" operator="in" result="effect1_backgroundBlur_3645_58860"/>
<feBlend mode="normal" in="SourceGraphic" in2="effect1_backgroundBlur_3645_58860" result="shape"/>
</filter>
</defs>
</svg>
