<svg width="192" height="120" viewBox="0 0 192 120" fill="none" xmlns="http://www.w3.org/2000/svg">
<path fill-rule="evenodd" clip-rule="evenodd" d="M177.384 2.4031C151.986 9.05874 116.324 22.7736 107.911 29.1198C101.705 33.8027 100.616 42.7869 105.755 46.9218C106.693 47.6772 109.029 48.094 109.029 47.5063C109.029 47.3605 108.007 46.1975 106.758 44.9219C104.913 43.038 104.487 42.101 104.487 39.9289C104.487 34.2692 107.395 30.445 114.494 26.772C127.185 20.2051 157.173 9.23169 176.521 4.07363C188.087 0.990994 189.484 0.849187 189.961 2.71123C190.489 4.77472 192.222 4.38508 191.976 2.25797C191.625 -0.786895 189.475 -0.765683 177.384 2.4031ZM27.2611 15.6329C14.9329 18.4876 4.95975 28.0814 1.19452 40.7075C-0.728987 47.1597 -0.281201 57.4963 2.19002 63.6749C5.52305 72.0077 12.7433 79.7381 20.4471 83.223C25.8632 85.6728 30.1288 86.403 36.9098 86.0412C44.119 85.6562 48.6773 84.1394 54.3641 80.2318L58.0865 77.674L59.1955 79.7858C61.1424 83.4927 63.5357 90.3505 64.7889 95.8133C65.5936 99.3214 66.312 101.115 66.9129 101.115C68.264 101.115 67.7831 97.8119 64.9342 87.5302C61.1242 73.7789 61.1826 74.8107 63.9712 70.5214C68.9597 62.8472 71.0175 52.6928 69.2874 44.2924C68.2809 39.4067 68.632 38.7832 70.7106 41.7637C73.9469 46.4043 75.6952 54.7298 76.5635 69.6387C77.4779 85.3309 78.6992 92.1688 80.5877 92.1688C81.0776 92.1688 81.1633 90.9674 80.8589 88.3585C78.5032 68.1544 78.4896 58.8369 80.8025 49.4922C81.8012 45.456 83.5411 42.2495 84.7189 42.2747C85.0622 42.2813 85.7268 42.9996 86.1966 43.8696C86.8637 45.1061 86.9403 47.6978 86.5457 55.7231C85.643 74.0838 85.804 78.2452 87.5289 81.0939C90.2448 85.5814 94.5344 86.7251 96.7564 83.5543C97.7194 82.18 97.9621 80.143 98.1815 71.5988C98.506 58.9508 98.9408 57.7183 103.485 56.5706C105.247 56.126 106.771 55.847 106.872 55.9504C106.974 56.0538 106.589 58.654 106.017 61.7293C104.908 67.6945 105.101 77.0478 106.43 81.7115C107.398 85.1089 110.067 88.1929 112.039 88.1929C114.157 88.1929 116.49 85.5138 117.544 81.8712C118.506 78.5421 118.764 78.3651 119.911 80.2411C120.657 81.4597 122.657 82.1204 122.657 81.1476C122.657 80.917 122.045 79.7169 121.297 78.4804C120.498 77.1611 119.79 74.5854 119.582 72.2489C119.106 66.8867 117.914 67.4984 117.33 73.4045C116.824 78.5275 114.744 84.9373 113.149 86.2884C111.614 87.5892 109.321 84.4946 108.317 79.7673C106.686 72.0885 107.803 56.3857 109.979 56.3857C110.978 56.3857 111.625 54.9458 111.625 52.7259C111.625 50.1502 110.35 50.1303 107.808 52.665C106.487 53.9823 104.898 55.0605 104.276 55.0605C102.189 55.0605 98.7565 56.9232 97.6409 58.6613C96.759 60.0356 96.452 62.6584 96.1237 71.6121C95.8712 78.4897 95.4293 83.1282 94.9821 83.5848C93.8348 84.7564 90.2623 82.5193 89.222 79.9767C87.6392 76.1095 87.4815 71.4908 88.5503 60.3616C89.712 48.2769 89.3602 43.9591 87.0214 41.5703C85.7449 40.2675 85.5094 40.235 83.9317 41.1495C81.2879 42.6809 79.9439 45.0193 78.5999 50.4219L77.3643 55.3918L76.8757 52.7412C75.5135 45.3434 72.1169 38.872 69.2044 38.1258C68.2303 37.876 67.1426 36.5321 66.016 34.1864C62.3494 26.5527 53.4043 18.9309 44.9756 16.2577C40.3051 14.7761 32.1957 14.4905 27.2611 15.6329ZM43.485 16.7667C51.2828 18.6373 60.6349 25.9132 64.4533 33.0791C66.5105 36.9403 66.4119 37.4897 63.5552 38.0735C60.7342 38.6493 57.3849 42.2998 56.4433 45.8231C55.4439 49.5651 56.0091 59.2563 57.6971 67.3194C58.3843 70.5995 58.8684 73.3634 58.7737 73.4622C58.3071 73.9466 54.1869 62.6418 52.9753 57.5533C52.0739 53.7676 51.2874 51.7605 50.702 51.7552C48.735 51.7373 52.1621 64.9207 56.2901 73.2502L57.9151 76.5303L56.0539 78.0484C42.7328 88.9132 23.0014 87.7456 10.888 75.3759C-9.17773 54.8875 1.9817 20.3754 30.1081 15.9364C33.7571 15.3605 38.9747 15.6839 43.485 16.7667ZM28.7212 18.6804C26.8646 19.3848 26.7354 22.2567 28.5162 23.2301C30.1399 24.1174 30.2262 24.1068 31.4332 22.875C32.8642 21.4132 32.7019 20.5941 30.9926 20.6551C30.1892 20.6836 29.8978 20.8579 30.3436 21.0414C31.5864 21.5536 31.3073 22.5907 29.9264 22.5907C27.2676 22.5907 27.779 19.5736 30.5059 19.1727C31.637 19.0064 31.8336 18.8116 31.1548 18.53C30.6194 18.308 29.5247 18.3756 28.7212 18.6804ZM41.0683 20.6027C40.7178 21.8783 40.5906 23.2109 40.786 23.5641C41.2292 24.3646 42.3571 20.1018 41.9807 19.0508C41.8295 18.6287 41.4187 19.3271 41.0683 20.6027ZM50.1153 24.9703C48.7026 27.1702 48.7013 27.1961 49.981 27.8952C50.859 28.3749 51.2724 28.3816 51.2724 27.9151C51.2724 27.538 50.9629 27.2292 50.5852 27.2292C50.2075 27.2292 50.0907 26.9105 50.3263 26.5215C50.5618 26.1319 51.2043 25.9901 51.7546 26.2054C52.5625 26.5222 52.6047 26.4135 51.9752 25.6389C51.3419 24.8596 51.4502 24.6403 52.558 24.464C53.8468 24.2586 53.8559 24.2075 52.7293 23.4985C51.7183 22.8624 51.3263 23.083 50.1153 24.9703ZM17.5715 24.6641C18.2627 25.9828 18.1796 26.055 16.2964 25.7727C15.101 25.5938 14.2911 25.7608 14.3034 26.1842C14.3365 27.2703 16.8512 30.1276 17.3373 29.6313C17.5722 29.3914 17.419 28.8421 16.9966 28.4107C15.7337 27.1212 16.1036 26.8177 18.5787 27.1126L20.9292 27.3929L19.4302 25.3234C17.7325 22.9783 16.4495 22.5231 17.5715 24.6641ZM128.163 30.561C127.396 31.8267 134.139 100.709 136.674 117.515C136.903 119.033 137.405 120 137.965 120C139.099 120 139.099 119.943 137.901 110.681C136.073 96.5548 129.824 34.8556 129.801 30.7081C129.795 29.7082 128.736 29.6128 128.163 30.561ZM58.0865 33.1931C56.3563 34.3626 56.3252 34.8828 58.004 34.57C58.3155 34.5117 58.4012 34.914 58.1942 35.464C57.9878 36.014 58.0981 36.6401 58.4395 36.8555C58.7808 37.0709 59.0599 36.782 59.0599 36.2141C59.0599 35.6111 59.6193 35.181 60.4032 35.181C61.4123 35.181 61.6947 34.8238 61.5389 33.7417C61.256 31.779 60.3838 31.6398 58.0865 33.1931ZM61.0068 33.4853C61.0068 33.6463 60.7147 33.9617 60.3578 34.187C60.0009 34.4123 59.7088 34.2805 59.7088 33.8948C59.7088 33.5091 60.0009 33.1931 60.3578 33.1931C60.7147 33.1931 61.0068 33.3243 61.0068 33.4853ZM6.49453 35.7542C6.49453 36.5699 9.07738 39.8195 9.72569 39.8195C10.0236 39.8195 10.1151 39.2265 9.92945 38.5022C9.70621 37.6308 9.98527 37.0311 10.7536 36.7296C11.8458 36.3015 11.8406 36.2445 10.6654 35.7741C8.92357 35.0776 6.49453 35.0657 6.49453 35.7542ZM9.09035 37.1689C9.09035 37.5334 8.96186 37.8316 8.80417 37.8316C8.64647 37.8316 8.33757 37.5334 8.11692 37.1689C7.89628 36.8045 8.02541 36.5063 8.40311 36.5063C8.7808 36.5063 9.09035 36.8045 9.09035 37.1689ZM68.1524 42.5013C69.1336 46.6773 69.1401 54.3494 68.1667 58.6845C67.3594 62.2787 64.33 69.0443 62.4052 71.5524L61.1904 73.1348L60.0476 68.3737C59.4194 65.7549 59.0586 63.4549 59.2468 63.2634C59.4343 63.0712 60.4805 63.3853 61.5707 63.9612C63.4442 64.9505 63.5909 64.9352 64.2496 63.6788C64.7214 62.779 64.7292 62.3496 64.2742 62.3496C63.905 62.3496 63.6026 62.6478 63.6026 63.0122C63.6026 64.4005 62.3021 63.602 62.2534 62.1839C62.2255 61.3636 62.0548 61.066 61.8751 61.5213C61.6946 61.9772 61.2488 62.3496 60.8834 62.3496C60.5181 62.3496 60.387 61.9023 60.5927 61.3556C60.7978 60.8089 60.6829 60.3616 60.3377 60.3616C59.9918 60.3616 59.7088 60.8686 59.7088 61.4881C59.7088 62.3893 59.5466 62.449 58.8976 61.7863C57.5511 60.412 57.8022 45.9828 59.2182 43.3389C60.7011 40.5703 62.7583 39.1569 65.3048 39.1569C67.2452 39.1569 67.4132 39.3537 68.1524 42.5013ZM63.8083 45.0512C63.3806 46.7204 62.3047 46.9132 62.3047 45.3195C62.3047 44.4395 62.1333 44.368 61.5214 44.9928C60.9094 45.6177 60.9665 46.0266 61.7836 46.8602C62.9212 48.0225 64.2515 47.599 64.2515 46.0756C64.2515 44.9027 65.3067 44.8166 65.8084 45.949C66.0102 46.4049 66.1075 46.2055 66.0245 45.507C65.811 43.7073 64.236 43.3833 63.8083 45.0512ZM3.12256 47.937C2.93437 48.9389 3.03237 49.7593 3.33997 49.7593C3.64693 49.7593 3.89871 49.5128 3.89871 49.2113C3.89871 48.9097 4.7748 48.7951 5.84558 48.9555C7.01434 49.1304 7.79245 48.9522 7.79245 48.5088C7.79245 48.1033 6.94101 47.7713 5.89943 47.7713C4.85851 47.7713 3.88508 47.3989 3.73582 46.943C3.58656 46.4878 3.31076 46.9351 3.12256 47.937ZM62.9536 55.0605C62.9536 55.4249 63.2456 55.7231 63.6026 55.7231C63.9595 55.7231 64.2515 55.4249 64.2515 55.0605C64.2515 54.696 63.9595 54.3978 63.6026 54.3978C63.2456 54.3978 62.9536 54.696 62.9536 55.0605ZM5.19662 56.3857C5.19662 56.7502 5.48865 57.0484 5.84558 57.0484C6.2025 57.0484 6.49453 56.7502 6.49453 56.3857C6.49453 56.0213 6.2025 55.7231 5.84558 55.7231C5.48865 55.7231 5.19662 56.0213 5.19662 56.3857ZM7.95468 63.8207C6.42899 64.5721 6.03313 65.9557 7.14349 66.6568C7.50041 66.8821 7.79245 66.6111 7.79245 66.0545C7.79245 65.4978 8.59585 64.598 9.57707 64.0539C11.6089 62.9281 10.1832 62.724 7.95468 63.8207ZM14.3352 72.555C12.5337 74.7716 15.7447 78.0504 17.9155 76.2109C19.508 74.861 18.8039 71.9938 16.822 71.7585C15.8992 71.6492 14.7804 72.0077 14.3352 72.555ZM17.7838 73.3429C18.3152 74.7577 17.7195 75.6025 16.1906 75.6025C15.4014 75.6025 14.9309 75.1486 14.9309 74.3879C14.9309 72.1813 17.055 71.4034 17.7838 73.3429ZM50.6494 73.2515C49.7078 74.4098 50.288 76.6548 51.6689 77.1956C53.1012 77.7568 55.1662 76.4342 55.1662 74.9558C55.1662 73.1865 54.1791 72.7604 53.1304 74.0771C52.3536 75.0525 52.3912 75.1327 53.436 74.7325C54.2394 74.4244 54.538 74.545 54.355 75.1049C54.2064 75.5608 53.525 75.9339 52.841 75.9339C51.1602 75.9339 50.7526 73.1812 52.3705 72.7538C53.3192 72.5027 53.3413 72.4285 52.4873 72.3662C51.9065 72.3238 51.0797 72.722 50.6494 73.2515ZM153.807 72.952C153.807 73.3164 154.099 73.6146 154.456 73.6146C154.813 73.6146 155.105 73.3164 155.105 72.952C155.105 72.5875 154.813 72.2893 154.456 72.2893C154.099 72.2893 153.807 72.5875 153.807 72.952ZM26.396 77.3698C26.1579 77.6124 25.9632 78.8051 25.9632 80.0204C25.9632 81.9202 26.1845 82.229 27.5473 82.229C28.4188 82.229 29.254 82.0057 29.4046 81.732C30.0905 80.4836 30.4715 77.5905 29.9504 77.5905C29.6311 77.5905 29.195 78.4851 28.9808 79.5784C28.7465 80.7745 28.1852 81.5664 27.5726 81.5664C26.7595 81.5664 26.6394 81.0979 26.9794 79.2471C27.3987 76.9663 27.252 76.4951 26.396 77.3698ZM41.7263 78.9158C42.1274 80.4816 41.3791 80.6479 40.2402 79.2471C38.8728 77.5646 37.8417 78.061 38.1557 80.249C38.4964 82.6187 39.5912 83.5947 39.5912 81.5293C39.5912 80.1317 39.6419 80.1225 41.2701 81.2119C42.1929 81.8295 43.0346 82.2363 43.1397 82.1164C43.5998 81.5909 42.6251 77.5905 42.0378 77.5905C41.6796 77.5905 41.5394 78.1869 41.7263 78.9158Z" fill="white"/>
</svg>
