<svg width="118" height="34" viewBox="0 0 118 34" fill="none" xmlns="http://www.w3.org/2000/svg">
<g clip-path="url(#clip0_564_1483)">
<path fill-rule="evenodd" clip-rule="evenodd" d="M21.54 24.3503V8.42969L32.3099 19.7614V9.45985H34.6511V25.2868L23.8813 13.9551V24.3503H21.54ZM52.5385 16.8583H58.7194V17.3265C58.7194 18.8249 58.5321 20.417 57.3146 22.1027C56.4718 23.2265 54.7861 24.9122 51.6019 24.9122C49.167 24.9122 47.4813 23.9757 46.1702 22.7583C44.4845 21.0725 43.9226 19.1995 43.9226 17.1392C43.9226 15.1725 44.5781 13.1122 46.0765 11.6138C47.8559 9.7408 50.1035 9.3662 51.7892 9.3662C54.0369 9.3662 55.5353 10.2091 56.3781 10.771C57.0337 11.2392 57.5956 11.8011 58.0639 12.363L56.3781 13.8614C55.9099 13.2059 54.5051 11.4265 51.7892 11.4265C48.6051 11.4265 46.3575 13.8614 46.3575 17.1392C46.3575 20.417 48.7924 22.7583 51.6956 22.7583C54.1305 22.7583 55.8162 21.1662 56.1908 18.9186H52.4448V16.8583H52.5385Z" fill="#DFDFDF"/>
<mask id="mask0_564_1483" style="mask-type:alpha" maskUnits="userSpaceOnUse" x="0" y="9" width="14" height="16">
<path fill-rule="evenodd" clip-rule="evenodd" d="M0 9.46094H13.0175V24.5387H0V9.46094Z" fill="white"/>
</mask>
<g mask="url(#mask0_564_1483)">
<path fill-rule="evenodd" clip-rule="evenodd" d="M13.0175 11.6149V9.46094H0V11.6149H5.33809V24.5387H13.0175V22.3847H7.67936V11.6149H13.0175Z" fill="#DFDFDF"/>
</g>
<mask id="mask1_564_1483" style="mask-type:alpha" maskUnits="userSpaceOnUse" x="0" y="0" width="118" height="34">
<path fill-rule="evenodd" clip-rule="evenodd" d="M0 33.7143H118V0H0V33.7143Z" fill="white"/>
</mask>
<g mask="url(#mask1_564_1483)">
<path fill-rule="evenodd" clip-rule="evenodd" d="M68.3647 33.6206H70.0505V0H68.3647V33.6206ZM82.4124 10.2079V13.673H81.1013V10.2079H80.5393V9.08413H81.1013V7.49206H82.4124V9.08413H82.9743V10.2079H82.4124ZM84.66 11.8C84.66 12.5492 85.2219 13.1111 85.9711 13.1111C86.7203 13.1111 87.2822 12.5492 87.2822 11.8C87.2822 11.0508 86.7203 10.4889 85.9711 10.4889C85.2219 10.4889 84.66 11.0508 84.66 11.8ZM87.1886 9.55238H88.4997V14.1413H87.1886V13.5794C86.7203 14.2349 86.0647 14.3286 85.7838 14.3286C84.379 14.3286 83.4425 13.2048 83.4425 11.8937C83.4425 10.4889 84.379 9.45873 85.7838 9.45873C86.1584 9.45873 86.8139 9.55238 87.2822 10.2079V9.55238H87.1886ZM89.9044 9.55238H91.2155V10.1143C91.4965 9.73968 91.8711 9.36508 92.6203 9.36508C92.9949 9.36508 93.6505 9.45873 94.0251 9.92698C94.306 10.3016 94.3997 10.7698 94.3997 11.2381V14.1413H93.0886V11.6127C93.0886 11.3317 93.0886 10.9571 92.8076 10.6762C92.6203 10.4889 92.3394 10.3952 92.1521 10.3952C91.7774 10.3952 91.4965 10.4889 91.3092 10.7698C91.1219 11.0508 91.1219 11.4254 91.1219 11.7063V14.0476H89.9044V9.55238ZM96.8346 11.8C96.8346 12.5492 97.3965 13.1111 98.1457 13.1111C98.8949 13.1111 99.4568 12.5492 99.4568 11.8C99.4568 11.0508 98.8949 10.4889 98.1457 10.4889C97.3965 10.4889 96.8346 11.0508 96.8346 11.8ZM99.2695 9.55238H100.581V14.0476C100.581 14.6095 100.581 15.2651 100.019 15.9206C99.5505 16.4825 98.8949 16.7635 98.052 16.7635C96.7409 16.7635 95.7108 16.0143 95.5235 14.7968H96.9282C97.0219 15.3587 97.4901 15.6397 98.052 15.6397C99.1759 15.6397 99.1759 14.6095 99.1759 14.3286V13.673C98.7076 14.3286 98.052 14.4222 97.7711 14.4222C96.3663 14.4222 95.4298 13.2984 95.4298 11.9873C95.4298 10.6762 96.2727 9.55238 97.7711 9.55238C98.614 9.55238 99.0822 10.0206 99.2695 10.3016V9.55238ZM101.236 13.954H102.547V9.27143H101.236V13.954ZM101.892 6.55556C102.36 6.55556 102.641 6.93016 102.641 7.30476C102.641 7.77302 102.266 8.05397 101.892 8.05397C101.423 8.05397 101.143 7.67937 101.143 7.30476C101.143 6.93016 101.517 6.55556 101.892 6.55556ZM107.604 11.2381C107.511 10.5825 106.949 10.3016 106.481 10.3016C106.012 10.3016 105.45 10.5825 105.357 11.2381H107.604ZM108.728 12.8302C108.635 13.2048 108.073 14.2349 106.481 14.2349C105.731 14.2349 105.17 14.0476 104.701 13.5794C104.139 13.1111 103.952 12.4556 103.952 11.8C103.952 10.8635 104.327 10.3016 104.701 10.0206C105.263 9.45873 105.919 9.36508 106.481 9.36508C107.417 9.36508 107.979 9.73968 108.26 10.1143C108.728 10.6762 108.822 11.4254 108.822 11.8937V11.9873H105.357C105.357 12.2683 105.45 12.5492 105.544 12.7365C105.638 12.9238 106.012 13.2048 106.481 13.2048C106.949 13.2048 107.323 12.9238 107.604 12.6429L108.728 12.8302ZM109.571 9.55238H110.882V10.2079C111.07 9.83333 111.35 9.64603 111.444 9.55238C111.631 9.45873 111.912 9.36508 112.193 9.36508C112.381 9.36508 112.568 9.45873 112.755 9.45873L112.568 10.6762C112.381 10.5825 112.193 10.4889 111.912 10.4889C111.631 10.4889 111.257 10.5825 111.07 10.8635C110.789 11.1444 110.789 11.6127 110.789 11.8937V14.1413H109.571V9.55238ZM116.127 10.5825C115.846 10.3016 115.471 10.3016 115.377 10.3016C115.096 10.3016 114.909 10.4889 114.909 10.6762C114.909 10.7698 115.003 10.9571 115.284 11.0508L115.565 11.1444C115.939 11.2381 116.501 11.4254 116.782 11.8C116.876 11.9873 117.063 12.2683 117.063 12.5492C117.063 12.9238 116.876 13.3921 116.501 13.7667C116.127 14.1413 115.658 14.2349 115.096 14.2349C114.16 14.2349 113.598 13.7667 113.317 13.4857L113.973 12.7365C114.254 13.0175 114.628 13.2984 115.003 13.2984C115.377 13.2984 115.658 13.1111 115.658 12.8302C115.658 12.5492 115.377 12.4556 115.284 12.3619L115.003 12.2683C114.628 12.1746 114.254 11.9873 113.973 11.7063C113.785 11.519 113.598 11.2381 113.598 10.8635C113.598 10.3952 113.785 10.0206 114.066 9.83333C114.441 9.55238 114.909 9.45873 115.284 9.45873C115.658 9.45873 116.22 9.45873 116.782 9.92698L116.127 10.5825ZM80.5393 23.881H81.8505V15.9206H80.5393V23.881ZM87.3759 22.1016C87.3759 21.3524 86.814 20.7905 86.0647 20.7905C85.3155 20.7905 84.7536 21.3524 84.7536 22.1016C84.7536 22.8508 85.3155 23.4127 86.0647 23.4127C86.814 23.4127 87.3759 22.8508 87.3759 22.1016ZM87.9378 20.3222C88.406 20.6968 88.687 21.3524 88.687 22.1016C88.687 22.8508 88.406 23.5063 87.9378 23.881C87.5632 24.2556 86.9076 24.5365 86.0647 24.5365C85.2219 24.5365 84.5663 24.2556 84.1917 23.881C83.7235 23.5063 83.4425 22.8508 83.4425 22.1016C83.4425 21.3524 83.7235 20.6968 84.1917 20.3222C84.5663 19.9476 85.2219 19.6667 86.0647 19.6667C86.9076 19.6667 87.4695 19.9476 87.9378 20.3222ZM90.279 19.6667V22.2889C90.279 22.5698 90.279 22.8508 90.56 23.1317C90.7473 23.2254 90.9346 23.4127 91.2155 23.4127C91.4965 23.4127 91.6838 23.319 91.8711 23.1317C92.152 22.8508 92.1521 22.5698 92.1521 22.2889V19.6667H93.4632V22.4762C93.4632 22.8508 93.3695 23.4127 92.9013 23.881C92.433 24.2556 91.7774 24.4429 91.2155 24.4429C90.6536 24.4429 89.9981 24.2556 89.5298 23.881C89.0616 23.5063 88.9679 22.9444 88.9679 22.4762V19.6667H90.279ZM94.587 19.854H95.8981V20.4159C96.179 20.0413 96.5536 19.6667 97.3028 19.6667C97.6774 19.6667 98.333 19.7603 98.7076 20.2286C98.9886 20.6032 99.0822 21.0714 99.0822 21.5397V24.4429H97.7711V21.9143C97.7711 21.6333 97.7711 21.2587 97.4901 20.9778C97.3028 20.7905 97.0219 20.7905 96.8346 20.7905C96.46 20.7905 96.179 20.8841 95.9917 21.1651C95.8044 21.446 95.8044 21.8206 95.8044 22.1016V24.4429H94.587V19.854ZM101.517 22.1016C101.517 22.8508 102.079 23.4127 102.828 23.4127C103.577 23.4127 104.139 22.8508 104.139 22.1016C104.139 21.3524 103.577 20.7905 102.828 20.7905C102.079 20.7905 101.517 21.3524 101.517 22.1016ZM103.952 19.854H105.263V24.3492C105.263 24.9111 105.263 25.5667 104.701 26.2222C104.233 26.7841 103.577 27.0651 102.735 27.0651C101.423 27.0651 100.393 26.3159 100.206 25.0984H101.611C101.704 25.6603 102.173 25.9413 102.735 25.9413C103.858 25.9413 103.858 24.9111 103.858 24.6302V23.9746C103.39 24.6302 102.735 24.7238 102.454 24.7238C101.049 24.7238 100.112 23.6 100.112 22.2889C100.112 20.9778 100.955 19.854 102.454 19.854C103.296 19.854 103.765 20.3222 103.952 20.6032V19.854ZM110.414 21.5397C110.32 20.8841 109.758 20.6032 109.29 20.6032C108.822 20.6032 108.26 20.8841 108.166 21.5397H110.414ZM111.538 23.1317C111.444 23.5063 110.882 24.5365 109.29 24.5365C108.541 24.5365 107.979 24.3492 107.511 23.881C106.949 23.4127 106.762 22.7571 106.762 22.1016C106.762 21.1651 107.136 20.6032 107.511 20.3222C108.073 19.7603 108.728 19.6667 109.29 19.6667C110.227 19.6667 110.789 20.0413 111.07 20.4159C111.538 20.9778 111.631 21.727 111.631 22.1952V22.2889H108.166C108.166 22.5698 108.26 22.8508 108.354 23.0381C108.447 23.2254 108.822 23.5063 109.29 23.5063C109.758 23.5063 110.133 23.2254 110.414 22.9444L111.538 23.1317Z" fill="#DFDFDF"/>
</g>
</g>
<defs>
<clipPath id="clip0_564_1483">
<rect width="118" height="34" fill="white"/>
</clipPath>
</defs>
</svg>
